<!-- icon666.com - MILLIONS vector ICONS FREE --><svg id="Layer_1" enable-background="new 0 0 491.5 491.5" viewBox="0 0 491.5 491.5" xmlns="http://www.w3.org/2000/svg"><g><path d="m118.5 42.3-71.4 71.4h71.4z" fill="#4d81c2"></path><path d="m350 253.3v-184.4c0-18.4-15-33.4-33.4-33.4h-188.4v83c0 2.6-2.1 4.8-4.8 4.8h-83v222.1c0 18.4 15 33.4 33.4 33.4h176.5c-1.2-6.3-1.8-12.8-1.8-19.4-.1-57 45-103.7 101.5-106.1zm-190.8-126.6h144.4c2.7 0 4.8 2.1 4.8 4.8 0 2.6-2.1 4.8-4.8 4.8h-144.4c-2.7 0-4.8-2.1-4.8-4.8 0-2.6 2.2-4.8 4.8-4.8zm-72.5 50.4h216.9c2.7 0 4.8 2.1 4.8 4.8 0 2.6-2.1 4.8-4.8 4.8h-216.9c-2.7 0-4.8-2.1-4.8-4.8 0-2.6 2.1-4.8 4.8-4.8zm0 50.4h216.9c2.7 0 4.8 2.1 4.8 4.8s-2.1 4.8-4.8 4.8h-216.9c-2.7 0-4.8-2.1-4.8-4.8 0-2.6 2.1-4.8 4.8-4.8zm133 110.5h-133c-2.7 0-4.8-2.1-4.8-4.8s2.1-4.8 4.8-4.8h133c2.7 0 4.8 2.1 4.8 4.8 0 2.6-2.1 4.8-4.8 4.8zm20.9-50.4h-153.9c-2.7 0-4.8-2.1-4.8-4.8s2.1-4.8 4.8-4.8h153.9c2.7 0 4.8 2.1 4.8 4.8 0 2.6-2.2 4.8-4.8 4.8z" fill="#03a8dd"></path><path d="m354.8 262.8c-53.6.6-96.8 42.6-96.8 96.6 0 53.3 43.3 96.6 96.6 96.6s96.6-43.3 96.6-96.6c0-53.2-43.2-96.5-96.4-96.6zm50.8 140.8c1.9 1.9 1.9 4.9 0 6.8s-4.9 1.9-6.8 0l-44.2-44.2-44.2 44.2c-1.9 1.9-4.9 1.9-6.8 0s-1.9-4.9 0-6.8l44.2-44.2-44.2-44.2c-1.9-1.9-1.9-4.9 0-6.8s4.9-1.9 6.8 0l44.2 44.2 44.2-44.2c1.9-1.9 4.9-1.9 6.8 0s1.9 4.9 0 6.8l-44.2 44.2z" fill="#4d81c2"></path></g></svg>