<!-- icon666.com - MILLIONS vector ICONS FREE --><svg id="Layer_1" viewBox="0 0 512 512" xmlns="http://www.w3.org/2000/svg" xmlns:xlink="http://www.w3.org/1999/xlink" data-name="Layer 1"><linearGradient id="GradientFill_1" gradientUnits="userSpaceOnUse" x1="256" x2="256" y1="512"><stop offset="0" stop-color="#6c54a3"></stop><stop offset="1" stop-color="#00b1d2"></stop></linearGradient><path d="m256 0c141.385 0 256 114.615 256 256s-114.615 256-256 256-256-114.615-256-256 114.615-256 256-256zm62.017 198.947a80.543 80.543 0 0 1 -.009 114.107 13.328 13.328 0 1 0 18.853 18.846 107.183 107.183 0 0 0 0-151.8 13.328 13.328 0 1 0 -18.844 18.853zm35.437 168.4a13.33 13.33 0 0 0 18.853 0 157.284 157.284 0 0 0 0-222.686 13.331 13.331 0 1 0 -18.853 18.852 130.624 130.624 0 0 1 0 184.982 13.339 13.339 0 0 0 0 18.852zm-233.294-139.39v56.086a7.82 7.82 0 0 0 7.81 7.814h20.208v-71.713h-20.208a7.819 7.819 0 0 0 -7.81 7.813zm113.609-54.987-55.578 40.543a35.79 35.79 0 0 1 -3.351 2.177v80.616a37.542 37.542 0 0 1 3.356 2.172l55.573 40.539a7.814 7.814 0 0 0 12.426-6.308v-153.422a7.827 7.827 0 0 0 -12.426-6.317zm57.809 83.03a30.658 30.658 0 0 0 -18.726-28.213v56.43a30.668 30.668 0 0 0 18.726-28.217zm-163.608 62.519h29.909a7.021 7.021 0 0 1 4.6 1.5l55.577 40.544a34.128 34.128 0 0 0 20.213 6.721 34.629 34.629 0 0 0 15.731-3.845 33.884 33.884 0 0 0 18.852-30.73v-20.68a57.282 57.282 0 0 0 0-112.066v-20.676a34.478 34.478 0 0 0 -54.793-27.854l-55.577 40.543a7 7 0 0 1 -4.6 1.506h-29.912a34.509 34.509 0 0 0 -34.47 34.475v56.086a34.512 34.512 0 0 0 34.47 34.476z" fill="url(#GradientFill_1)" fill-rule="evenodd"></path></svg>