<!-- icon666.com - MILLIONS vector ICONS FREE --><svg id="Capa_1" enable-background="new 0 0 512 512" viewBox="0 0 512 512" xmlns="http://www.w3.org/2000/svg" xmlns:xlink="http://www.w3.org/1999/xlink"><linearGradient id="SVGID_1_" gradientUnits="userSpaceOnUse" x1="256" x2="256" y1="512" y2="0"><stop offset="0" stop-color="#ffe59a"></stop><stop offset="1" stop-color="#ffffd5"></stop></linearGradient><linearGradient id="SVGID_00000032619830037556309710000002000373659518734999_" gradientUnits="userSpaceOnUse" x1="256.001" x2="256.001" y1="407" y2="105"><stop offset="0" stop-color="#ffde00"></stop><stop offset="1" stop-color="#fd5900"></stop></linearGradient><g><g><circle cx="256" cy="256" fill="url(#SVGID_1_)" r="256"></circle></g><g><g><path d="m362.589 264.882h39.208l-48.09-48.09v39.207c0 4.906 3.977 8.883 8.882 8.883zm-17.764 17.764c-4.91 0-8.883-3.973-8.883-8.882v-62.177h-62.177c-4.909 0-8.882 3.973-8.882 8.882v177.648c0 4.91 3.973 8.882 8.882 8.882h124.354c4.91 0 8.883-3.973 8.883-8.882v-115.471zm17.764 71.06h-53.294c-4.909 0-8.882-3.973-8.882-8.882s3.973-8.882 8.882-8.882h53.294c4.91 0 8.882 3.973 8.882 8.882s-3.972 8.882-8.882 8.882zm0-35.53h-53.294c-4.909 0-8.882-3.973-8.882-8.882 0-4.91 3.973-8.883 8.882-8.883h53.294c4.91 0 8.882 3.973 8.882 8.883.001 4.909-3.972 8.882-8.882 8.882zm-204.295-177.648h-26.647c-14.694 0-26.647 11.953-26.647 26.647v35.53c0 14.694 11.953 26.647 26.647 26.647h26.647zm115.471 0h26.647v26.647c0 4.91 3.973 8.883 8.882 8.883 4.91 0 8.883-3.973 8.883-8.883v-35.53c0-4.909-3.973-8.882-8.883-8.882h-35.53c-4.909 0-8.882 3.973-8.882 8.882.001 4.91 3.974 8.883 8.883 8.883zm-71.059 159.883h-26.647v-26.647c0-4.91-3.973-8.882-8.882-8.882s-8.882 3.973-8.882 8.882v35.53c0 4.909 3.973 8.882 8.882 8.882h35.53c4.91 0 8.882-3.973 8.882-8.882 0-4.91-3.973-8.883-8.883-8.883zm35.53-124.353h-8.882v-62.177c0-3.279-1.804-6.289-4.693-7.833-2.88-1.544-6.393-1.37-9.116.442l-39.485 26.323v104.253l39.485 26.323c2.754 1.836 6.268 1.97 9.116.442 2.889-1.544 4.693-4.554 4.693-7.833v-62.177h8.882c4.91 0 8.882-3.973 8.882-8.882s-3.972-8.881-8.882-8.881z" fill="url(#SVGID_00000032619830037556309710000002000373659518734999_)"></path></g></g></g></svg>